<svg width="63" height="63" version="1.1" xmlns="http://www.w3.org/2000/svg">
	<g id="elements" fill="black" stroke="none">
		<rect x="0" y="0" width="3" height="3" />
		<rect x="3" y="0" width="3" height="3" />
		<rect x="6" y="0" width="3" height="3" />
		<rect x="9" y="0" width="3" height="3" />
		<rect x="12" y="0" width="3" height="3" />
		<rect x="15" y="0" width="3" height="3" />
		<rect x="18" y="0" width="3" height="3" />
		<rect x="27" y="0" width="3" height="3" />
		<rect x="33" y="0" width="3" height="3" />
		<rect x="36" y="0" width="3" height="3" />
		<rect x="42" y="0" width="3" height="3" />
		<rect x="45" y="0" width="3" height="3" />
		<rect x="48" y="0" width="3" height="3" />
		<rect x="51" y="0" width="3" height="3" />
		<rect x="54" y="0" width="3" height="3" />
		<rect x="57" y="0" width="3" height="3" />
		<rect x="60" y="0" width="3" height="3" />
		<rect x="0" y="3" width="3" height="3" />
		<rect x="18" y="3" width="3" height="3" />
		<rect x="24" y="3" width="3" height="3" />
		<rect x="27" y="3" width="3" height="3" />
		<rect x="33" y="3" width="3" height="3" />
		<rect x="42" y="3" width="3" height="3" />
		<rect x="60" y="3" width="3" height="3" />
		<rect x="0" y="6" width="3" height="3" />
		<rect x="6" y="6" width="3" height="3" />
		<rect x="9" y="6" width="3" height="3" />
		<rect x="12" y="6" width="3" height="3" />
		<rect x="18" y="6" width="3" height="3" />
		<rect x="24" y="6" width="3" height="3" />
		<rect x="27" y="6" width="3" height="3" />
		<rect x="36" y="6" width="3" height="3" />
		<rect x="42" y="6" width="3" height="3" />
		<rect x="48" y="6" width="3" height="3" />
		<rect x="51" y="6" width="3" height="3" />
		<rect x="54" y="6" width="3" height="3" />
		<rect x="60" y="6" width="3" height="3" />
		<rect x="0" y="9" width="3" height="3" />
		<rect x="6" y="9" width="3" height="3" />
		<rect x="9" y="9" width="3" height="3" />
		<rect x="12" y="9" width="3" height="3" />
		<rect x="18" y="9" width="3" height="3" />
		<rect x="27" y="9" width="3" height="3" />
		<rect x="33" y="9" width="3" height="3" />
		<rect x="42" y="9" width="3" height="3" />
		<rect x="48" y="9" width="3" height="3" />
		<rect x="51" y="9" width="3" height="3" />
		<rect x="54" y="9" width="3" height="3" />
		<rect x="60" y="9" width="3" height="3" />
		<rect x="0" y="12" width="3" height="3" />
		<rect x="6" y="12" width="3" height="3" />
		<rect x="9" y="12" width="3" height="3" />
		<rect x="12" y="12" width="3" height="3" />
		<rect x="18" y="12" width="3" height="3" />
		<rect x="24" y="12" width="3" height="3" />
		<rect x="36" y="12" width="3" height="3" />
		<rect x="42" y="12" width="3" height="3" />
		<rect x="48" y="12" width="3" height="3" />
		<rect x="51" y="12" width="3" height="3" />
		<rect x="54" y="12" width="3" height="3" />
		<rect x="60" y="12" width="3" height="3" />
		<rect x="0" y="15" width="3" height="3" />
		<rect x="18" y="15" width="3" height="3" />
		<rect x="24" y="15" width="3" height="3" />
		<rect x="33" y="15" width="3" height="3" />
		<rect x="36" y="15" width="3" height="3" />
		<rect x="42" y="15" width="3" height="3" />
		<rect x="60" y="15" width="3" height="3" />
		<rect x="0" y="18" width="3" height="3" />
		<rect x="3" y="18" width="3" height="3" />
		<rect x="6" y="18" width="3" height="3" />
		<rect x="9" y="18" width="3" height="3" />
		<rect x="12" y="18" width="3" height="3" />
		<rect x="15" y="18" width="3" height="3" />
		<rect x="18" y="18" width="3" height="3" />
		<rect x="24" y="18" width="3" height="3" />
		<rect x="30" y="18" width="3" height="3" />
		<rect x="36" y="18" width="3" height="3" />
		<rect x="42" y="18" width="3" height="3" />
		<rect x="45" y="18" width="3" height="3" />
		<rect x="48" y="18" width="3" height="3" />
		<rect x="51" y="18" width="3" height="3" />
		<rect x="54" y="18" width="3" height="3" />
		<rect x="57" y="18" width="3" height="3" />
		<rect x="60" y="18" width="3" height="3" />
		<rect x="24" y="21" width="3" height="3" />
		<rect x="27" y="21" width="3" height="3" />
		<rect x="30" y="21" width="3" height="3" />
		<rect x="33" y="21" width="3" height="3" />
		<rect x="36" y="21" width="3" height="3" />
		<rect x="0" y="24" width="3" height="3" />
		<rect x="3" y="24" width="3" height="3" />
		<rect x="9" y="24" width="3" height="3" />
		<rect x="18" y="24" width="3" height="3" />
		<rect x="21" y="24" width="3" height="3" />
		<rect x="27" y="24" width="3" height="3" />
		<rect x="30" y="24" width="3" height="3" />
		<rect x="42" y="24" width="3" height="3" />
		<rect x="45" y="24" width="3" height="3" />
		<rect x="48" y="24" width="3" height="3" />
		<rect x="54" y="24" width="3" height="3" />
		<rect x="57" y="24" width="3" height="3" />
		<rect x="12" y="27" width="3" height="3" />
		<rect x="21" y="27" width="3" height="3" />
		<rect x="24" y="27" width="3" height="3" />
		<rect x="27" y="27" width="3" height="3" />
		<rect x="30" y="27" width="3" height="3" />
		<rect x="42" y="27" width="3" height="3" />
		<rect x="45" y="27" width="3" height="3" />
		<rect x="51" y="27" width="3" height="3" />
		<rect x="0" y="30" width="3" height="3" />
		<rect x="3" y="30" width="3" height="3" />
		<rect x="12" y="30" width="3" height="3" />
		<rect x="15" y="30" width="3" height="3" />
		<rect x="18" y="30" width="3" height="3" />
		<rect x="21" y="30" width="3" height="3" />
		<rect x="24" y="30" width="3" height="3" />
		<rect x="27" y="30" width="3" height="3" />
		<rect x="30" y="30" width="3" height="3" />
		<rect x="36" y="30" width="3" height="3" />
		<rect x="39" y="30" width="3" height="3" />
		<rect x="51" y="30" width="3" height="3" />
		<rect x="54" y="30" width="3" height="3" />
		<rect x="0" y="33" width="3" height="3" />
		<rect x="3" y="33" width="3" height="3" />
		<rect x="9" y="33" width="3" height="3" />
		<rect x="15" y="33" width="3" height="3" />
		<rect x="21" y="33" width="3" height="3" />
		<rect x="24" y="33" width="3" height="3" />
		<rect x="27" y="33" width="3" height="3" />
		<rect x="30" y="33" width="3" height="3" />
		<rect x="33" y="33" width="3" height="3" />
		<rect x="45" y="33" width="3" height="3" />
		<rect x="51" y="33" width="3" height="3" />
		<rect x="54" y="33" width="3" height="3" />
		<rect x="60" y="33" width="3" height="3" />
		<rect x="0" y="36" width="3" height="3" />
		<rect x="9" y="36" width="3" height="3" />
		<rect x="12" y="36" width="3" height="3" />
		<rect x="18" y="36" width="3" height="3" />
		<rect x="21" y="36" width="3" height="3" />
		<rect x="24" y="36" width="3" height="3" />
		<rect x="27" y="36" width="3" height="3" />
		<rect x="36" y="36" width="3" height="3" />
		<rect x="42" y="36" width="3" height="3" />
		<rect x="48" y="36" width="3" height="3" />
		<rect x="51" y="36" width="3" height="3" />
		<rect x="57" y="36" width="3" height="3" />
		<rect x="24" y="39" width="3" height="3" />
		<rect x="33" y="39" width="3" height="3" />
		<rect x="45" y="39" width="3" height="3" />
		<rect x="48" y="39" width="3" height="3" />
		<rect x="51" y="39" width="3" height="3" />
		<rect x="0" y="42" width="3" height="3" />
		<rect x="3" y="42" width="3" height="3" />
		<rect x="6" y="42" width="3" height="3" />
		<rect x="9" y="42" width="3" height="3" />
		<rect x="12" y="42" width="3" height="3" />
		<rect x="15" y="42" width="3" height="3" />
		<rect x="18" y="42" width="3" height="3" />
		<rect x="24" y="42" width="3" height="3" />
		<rect x="27" y="42" width="3" height="3" />
		<rect x="39" y="42" width="3" height="3" />
		<rect x="51" y="42" width="3" height="3" />
		<rect x="54" y="42" width="3" height="3" />
		<rect x="60" y="42" width="3" height="3" />
		<rect x="0" y="45" width="3" height="3" />
		<rect x="18" y="45" width="3" height="3" />
		<rect x="27" y="45" width="3" height="3" />
		<rect x="33" y="45" width="3" height="3" />
		<rect x="36" y="45" width="3" height="3" />
		<rect x="39" y="45" width="3" height="3" />
		<rect x="48" y="45" width="3" height="3" />
		<rect x="51" y="45" width="3" height="3" />
		<rect x="60" y="45" width="3" height="3" />
		<rect x="0" y="48" width="3" height="3" />
		<rect x="6" y="48" width="3" height="3" />
		<rect x="9" y="48" width="3" height="3" />
		<rect x="12" y="48" width="3" height="3" />
		<rect x="18" y="48" width="3" height="3" />
		<rect x="30" y="48" width="3" height="3" />
		<rect x="33" y="48" width="3" height="3" />
		<rect x="42" y="48" width="3" height="3" />
		<rect x="48" y="48" width="3" height="3" />
		<rect x="51" y="48" width="3" height="3" />
		<rect x="57" y="48" width="3" height="3" />
		<rect x="60" y="48" width="3" height="3" />
		<rect x="0" y="51" width="3" height="3" />
		<rect x="6" y="51" width="3" height="3" />
		<rect x="9" y="51" width="3" height="3" />
		<rect x="12" y="51" width="3" height="3" />
		<rect x="18" y="51" width="3" height="3" />
		<rect x="24" y="51" width="3" height="3" />
		<rect x="33" y="51" width="3" height="3" />
		<rect x="45" y="51" width="3" height="3" />
		<rect x="51" y="51" width="3" height="3" />
		<rect x="57" y="51" width="3" height="3" />
		<rect x="60" y="51" width="3" height="3" />
		<rect x="0" y="54" width="3" height="3" />
		<rect x="6" y="54" width="3" height="3" />
		<rect x="9" y="54" width="3" height="3" />
		<rect x="12" y="54" width="3" height="3" />
		<rect x="18" y="54" width="3" height="3" />
		<rect x="36" y="54" width="3" height="3" />
		<rect x="45" y="54" width="3" height="3" />
		<rect x="48" y="54" width="3" height="3" />
		<rect x="51" y="54" width="3" height="3" />
		<rect x="60" y="54" width="3" height="3" />
		<rect x="0" y="57" width="3" height="3" />
		<rect x="18" y="57" width="3" height="3" />
		<rect x="24" y="57" width="3" height="3" />
		<rect x="30" y="57" width="3" height="3" />
		<rect x="39" y="57" width="3" height="3" />
		<rect x="42" y="57" width="3" height="3" />
		<rect x="48" y="57" width="3" height="3" />
		<rect x="54" y="57" width="3" height="3" />
		<rect x="57" y="57" width="3" height="3" />
		<rect x="0" y="60" width="3" height="3" />
		<rect x="3" y="60" width="3" height="3" />
		<rect x="6" y="60" width="3" height="3" />
		<rect x="9" y="60" width="3" height="3" />
		<rect x="12" y="60" width="3" height="3" />
		<rect x="15" y="60" width="3" height="3" />
		<rect x="18" y="60" width="3" height="3" />
		<rect x="24" y="60" width="3" height="3" />
		<rect x="30" y="60" width="3" height="3" />
		<rect x="33" y="60" width="3" height="3" />
		<rect x="36" y="60" width="3" height="3" />
		<rect x="48" y="60" width="3" height="3" />
		<rect x="54" y="60" width="3" height="3" />
	</g>
</svg>